<?xml version="1.0" encoding="UTF-8"?>
<!DOCTYPE svg PUBLIC "-//W3C//DTD SVG 1.1//EN" "http://www.w3.org/Graphics/SVG/1.1/DTD/svg11.dtd">
<!-- Creator: CorelDRAW 2020 (64-Bit) -->
<svg xmlns="http://www.w3.org/2000/svg" xml:space="preserve" width="1.05864in" height="0.955886in" version="1.1" style="shape-rendering:geometricPrecision; text-rendering:geometricPrecision; image-rendering:optimizeQuality; fill-rule:evenodd; clip-rule:evenodd"
viewBox="0 0 34.61 31.25"
 xmlns:xlink="http://www.w3.org/1999/xlink"
 xmlns:xodm="http://www.corel.com/coreldraw/odm/2003">
 <defs>
  <style type="text/css">
   <![CDATA[
    .fil0 {fill:#FEFEFE}
   ]]>
  </style>
 </defs>
 <g id="Layer_x0020_1">
  <metadata id="CorelCorpID_0Corel-Layer"/>
  <path class="fil0" d="M-0 29.23c0,-1.11 0.9,-2.02 2.02,-2.02 1.11,0 2.02,0.9 2.02,2.02 0,1.11 -0.9,2.02 -2.02,2.02 -1.11,0 -2.02,-0.9 -2.02,-2.02zm30.58 -27.22c0,-1.11 0.9,-2.02 2.02,-2.02 1.11,0 2.02,0.9 2.02,2.02 0,1.11 -0.9,2.02 -2.02,2.02 -1.11,0 -2.02,-0.9 -2.02,-2.02zm0 9.07c0,-1.11 0.9,-2.02 2.02,-2.02 1.11,0 2.02,0.9 2.02,2.02 0,1.11 -0.9,2.02 -2.02,2.02 -1.11,0 -2.02,-0.9 -2.02,-2.02zm0 9.07c0,-1.11 0.9,-2.02 2.02,-2.02 1.11,0 2.02,0.9 2.02,2.02 0,1.11 -0.9,2.02 -2.02,2.02 -1.11,0 -2.02,-0.9 -2.02,-2.02zm0 9.07c0,-1.11 0.9,-2.02 2.02,-2.02 1.11,0 2.02,0.9 2.02,2.02 0,1.11 -0.9,2.02 -2.02,2.02 -1.11,0 -2.02,-0.9 -2.02,-2.02zm-10.19 -27.22c0,-1.11 0.9,-2.02 2.02,-2.02 1.11,0 2.02,0.9 2.02,2.02 0,1.11 -0.9,2.02 -2.02,2.02 -1.11,0 -2.02,-0.9 -2.02,-2.02zm0 9.07c0,-1.11 0.9,-2.02 2.02,-2.02 1.11,0 2.02,0.9 2.02,2.02 0,1.11 -0.9,2.02 -2.02,2.02 -1.11,0 -2.02,-0.9 -2.02,-2.02zm0 9.07c0,-1.11 0.9,-2.02 2.02,-2.02 1.11,0 2.02,0.9 2.02,2.02 0,1.11 -0.9,2.02 -2.02,2.02 -1.11,0 -2.02,-0.9 -2.02,-2.02zm0 9.07c0,-1.11 0.9,-2.02 2.02,-2.02 1.11,0 2.02,0.9 2.02,2.02 0,1.11 -0.9,2.02 -2.02,2.02 -1.11,0 -2.02,-0.9 -2.02,-2.02zm-10.19 -27.22c0,-1.11 0.9,-2.02 2.02,-2.02 1.11,0 2.02,0.9 2.02,2.02 0,1.11 -0.9,2.02 -2.02,2.02 -1.11,0 -2.02,-0.9 -2.02,-2.02zm0 9.07c0,-1.11 0.9,-2.02 2.02,-2.02 1.11,0 2.02,0.9 2.02,2.02 0,1.11 -0.9,2.02 -2.02,2.02 -1.11,0 -2.02,-0.9 -2.02,-2.02zm0 9.07c0,-1.11 0.9,-2.02 2.02,-2.02 1.11,0 2.02,0.9 2.02,2.02 0,1.11 -0.9,2.02 -2.02,2.02 -1.11,0 -2.02,-0.9 -2.02,-2.02zm0 9.07c0,-1.11 0.9,-2.02 2.02,-2.02 1.11,0 2.02,0.9 2.02,2.02 0,1.11 -0.9,2.02 -2.02,2.02 -1.11,0 -2.02,-0.9 -2.02,-2.02zm-10.19 -27.22c0,-1.11 0.9,-2.02 2.02,-2.02 1.11,0 2.02,0.9 2.02,2.02 0,1.11 -0.9,2.02 -2.02,2.02 -1.11,0 -2.02,-0.9 -2.02,-2.02zm0 9.07c0,-1.11 0.9,-2.02 2.02,-2.02 1.11,0 2.02,0.9 2.02,2.02 0,1.11 -0.9,2.02 -2.02,2.02 -1.11,0 -2.02,-0.9 -2.02,-2.02zm0 9.07c0,-1.11 0.9,-2.02 2.02,-2.02 1.11,0 2.02,0.9 2.02,2.02 0,1.11 -0.9,2.02 -2.02,2.02 -1.11,0 -2.02,-0.9 -2.02,-2.02z"/>
 </g>
</svg>
