<?xml version="1.0" encoding="UTF-8"?>
<!DOCTYPE svg PUBLIC "-//W3C//DTD SVG 1.1//EN" "http://www.w3.org/Graphics/SVG/1.1/DTD/svg11.dtd">
<!-- Creator: CorelDRAW 2020 (64-Bit) -->
<svg xmlns="http://www.w3.org/2000/svg" xml:space="preserve" width="2.20138in" height="2.00694in" version="1.1" style="shape-rendering:geometricPrecision; text-rendering:geometricPrecision; image-rendering:optimizeQuality; fill-rule:evenodd; clip-rule:evenodd"
viewBox="0 0 494.38 450.71"
 xmlns:xlink="http://www.w3.org/1999/xlink"
 xmlns:xodm="http://www.corel.com/coreldraw/odm/2003">
 <defs>
  <style type="text/css">
   <![CDATA[
    .str0 {stroke:#BDBFC1;stroke-width:3.12;stroke-miterlimit:2.61313}
    .fil0 {fill:#FEFEFE}
    .fil2 {fill:#D2D3D5}
    .fil3 {fill:#F7ADAF}
    .fil4 {fill:#91D8F7}
    .fil1 {fill:#22C31D}
   ]]>
  </style>
 </defs>
 <g id="Layer_x0020_1">
  <metadata id="CorelCorpID_0Corel-Layer"/>
  <g id="_2020201042048">
   <rect class="fil0" x="37.43" width="456.95" height="450.71" rx="51.46" ry="51.46"/>
   <circle class="fil1" cx="38.21" cy="122.23" r="36.65"/>
   <circle class="fil0 str0" cx="38.21" cy="222.04" r="36.65"/>
   <circle class="fil0 str0" cx="38.21" cy="321.85" r="36.65"/>
   <polygon class="fil0" points="21.54,123.59 27.48,117.84 34.3,124.18 50.29,109.65 56.43,115.7 34.01,135.97 "/>
   <path class="fil2" d="M140.78 94.13l287.95 0c3.59,0 6.52,2.94 6.52,6.52l0 2.55c0,3.59 -2.94,6.52 -6.52,6.52l-287.95 0c-3.59,0 -6.52,-2.94 -6.52,-6.52l0 -2.55c0,-3.59 2.94,-6.52 6.52,-6.52zm264.18 31.45c3.76,0 6.8,3.04 6.8,6.8 0,3.76 -3.04,6.8 -6.8,6.8 -3.76,0 -6.8,-3.04 -6.8,-6.8 0,-3.76 3.04,-6.8 6.8,-6.8zm23.49 0c3.76,0 6.8,3.04 6.8,6.8 0,3.76 -3.04,6.8 -6.8,6.8 -3.76,0 -6.8,-3.04 -6.8,-6.8 0,-3.76 3.04,-6.8 6.8,-6.8zm-287.67 -1.33l56.16 0c3.59,0 6.52,2.94 6.52,6.52l0 2.55c0,3.59 -2.94,6.52 -6.52,6.52l-56.16 0c-3.59,0 -6.52,-2.94 -6.52,-6.52l0 -2.55c0,-3.59 2.94,-6.52 6.52,-6.52z"/>
   <path class="fil3" d="M140.78 195.91l287.95 0c3.59,0 6.52,2.94 6.52,6.52l0 2.55c0,3.59 -2.94,6.52 -6.52,6.52l-287.95 0c-3.59,0 -6.52,-2.94 -6.52,-6.52l0 -2.55c0,-3.59 2.94,-6.52 6.52,-6.52zm264.18 31.45c3.76,0 6.8,3.04 6.8,6.8 0,3.76 -3.04,6.8 -6.8,6.8 -3.76,0 -6.8,-3.04 -6.8,-6.8 0,-3.76 3.04,-6.8 6.8,-6.8zm23.49 0c3.76,0 6.8,3.04 6.8,6.8 0,3.76 -3.04,6.8 -6.8,6.8 -3.76,0 -6.8,-3.04 -6.8,-6.8 0,-3.76 3.04,-6.8 6.8,-6.8zm-287.67 -1.33l56.16 0c3.59,0 6.52,2.94 6.52,6.52l0 2.55c0,3.59 -2.94,6.52 -6.52,6.52l-56.16 0c-3.59,0 -6.52,-2.94 -6.52,-6.52l0 -2.55c0,-3.59 2.94,-6.52 6.52,-6.52z"/>
   <path class="fil4" d="M140.78 294.94l287.95 0c3.59,0 6.52,2.94 6.52,6.52l0 2.55c0,3.59 -2.94,6.52 -6.52,6.52l-287.95 0c-3.59,0 -6.52,-2.94 -6.52,-6.52l0 -2.55c0,-3.59 2.94,-6.52 6.52,-6.52zm264.18 31.45c3.76,0 6.8,3.04 6.8,6.8 0,3.76 -3.04,6.8 -6.8,6.8 -3.76,0 -6.8,-3.04 -6.8,-6.8 0,-3.76 3.04,-6.8 6.8,-6.8zm23.49 0c3.76,0 6.8,3.04 6.8,6.8 0,3.76 -3.04,6.8 -6.8,6.8 -3.76,0 -6.8,-3.04 -6.8,-6.8 0,-3.76 3.04,-6.8 6.8,-6.8zm-287.67 -1.33l56.16 0c3.59,0 6.52,2.94 6.52,6.52l0 2.55c0,3.59 -2.94,6.52 -6.52,6.52l-56.16 0c-3.59,0 -6.52,-2.94 -6.52,-6.52l0 -2.55c0,-3.59 2.94,-6.52 6.52,-6.52z"/>
  </g>
 </g>
</svg>
