<?xml version="1.0" encoding="UTF-8"?>
<!DOCTYPE svg PUBLIC "-//W3C//DTD SVG 1.1//EN" "http://www.w3.org/Graphics/SVG/1.1/DTD/svg11.dtd">
<!-- Creator: CorelDRAW 2020 (64-Bit) -->
<svg xmlns="http://www.w3.org/2000/svg" xml:space="preserve" width="2.54714in" height="1.84028in" version="1.1" style="shape-rendering:geometricPrecision; text-rendering:geometricPrecision; image-rendering:optimizeQuality; fill-rule:evenodd; clip-rule:evenodd"
viewBox="0 0 1370.79 990.38"
 xmlns:xlink="http://www.w3.org/1999/xlink"
 xmlns:xodm="http://www.corel.com/coreldraw/odm/2003">
 <defs>
  <style type="text/css">
   <![CDATA[
    .fil0 {fill:#373435}
   ]]>
  </style>
 </defs>
 <g id="Layer_x0020_1">
  <metadata id="CorelCorpID_0Corel-Layer"/>
  <path class="fil0" d="M-0 0l622.57 0 0 231.71 -622.57 0 0 -231.71zm748.22 758.67l622.57 0 0 231.71 -622.57 0 0 -231.71zm-748.22 0l622.57 0 0 231.71 -622.57 0 0 -231.71zm0 -379.33l491.91 0 130.66 0 748.22 0 0 231.71 -748.22 0 -130.66 0 -491.91 0 0 -231.71zm748.22 -379.33l622.57 0 0 231.71 -622.57 0 0 -231.71z"/>
 </g>
</svg>
